<?xml version="1.0" encoding="UTF-8"?>
<svg id="logo" xmlns="http://www.w3.org/2000/svg" version="1.1" viewBox="0 0 368.5 368.5">
  <!-- Generator: Adobe Illustrator 30.0.0, SVG Export Plug-In . SVG Version: 2.1.1 Build 123)  -->
  <rect x="40.91" y="282.1" width="287.4" height="23.1"/>
  <path d="M210.47,161.22h-33.4c-5.01,0-5.01,11.52,0,11.52h33.4v25.91h-33.4c-5.01,0-5.01,11.52,0,11.52h33.4v25.91h-33.4c-5.01,0-5.01,11.52,0,11.52h33.4v23.03h-77.58v-113.36c0-1.83,4.24-3.6,5.76-4.31,20.13-9.3,44.02-14.81,64.46-23.97,2.25-1.29,7.37,1.68,7.37,3.8v28.43Z"/>
  <path d="M121.4,161.22h-40.23v-25.91h44.9c5.01,0,5.01-11.52,0-11.52h-44.9v-25.91h44.9c5.01,0,5.01-11.52,0-11.52h-44.9v-19.07c0-2.37,4.02-3.81,6.07-3.99,24.65-2.24,52.63,1.75,77.63.02,2.29.06,4.22,1.47,5.05,3.58l-.02,61.95c-1.02,1.7-32.15,11.79-36.99,14.03-7.91,3.66-11.93,9.33-11.51,18.34Z"/>
  <path d="M273.68,176.69c.99-5.58,8.33-8.61,13.29-5.4,5.3,3.43,3.78,9.72,3.96,15.12,6.95-2.87,14.46-2.54,21.69-1.23,7.68,1.4,20.57,4.68,16.3,15.19-4.03,9.92-17.08.98-24.35,1.16,6.56,7.07,13.54,17.41,14.92,27.16,1.53,10.9-12.26,14.68-16.5,5.01-3.26-7.43-4.02-15.77-12.07-20.66v25.55c0,4.14-3.49,14.37-5.4,18.34-2.31,4.8-6.15,8.78-8.25,13.69h-21.55c5.15-8.67,13.02-16.14,16.13-25.94.37-1.17,1.83-6.09,1.83-6.81v-26.27c-5.05,3.72-8.68,8.66-11.12,14.41-1.71,4.03-2.2,11.62-7.35,12.79-7.22,1.64-12.6-2.61-11.53-10.11,1.39-9.76,8.34-20.07,14.92-27.16-7.12.02-21.9,9.01-24.8-2.14-2.52-9.66,8.38-12.45,15.57-13.94,8.02-1.67,16.85-2.15,24.31,1.69.39-3.18-.53-7.43,0-10.44Z"/>
  <rect x="81.17" y="172.74" width="40.23" height="25.91"/>
  <rect x="81.17" y="210.16" width="40.23" height="25.91"/>
  <rect x="81.17" y="247.59" width="40.23" height="23.03"/>
</svg>