<?xml version="1.0" encoding="UTF-8"?>
<!DOCTYPE svg PUBLIC "-//W3C//DTD SVG 1.1//EN" "http://www.w3.org/Graphics/SVG/1.1/DTD/svg11.dtd">
<svg xmlns="http://www.w3.org/2000/svg" version="1.1" width="512px" height="512px" style="shape-rendering:geometricPrecision; text-rendering:geometricPrecision; image-rendering:optimizeQuality; fill-rule:evenodd; clip-rule:evenodd" xmlns:xlink="http://www.w3.org/1999/xlink">
<g><path style="opacity:0.955" fill="#000000" d="M 74.5,-0.5 C 195.167,-0.5 315.833,-0.5 436.5,-0.5C 448.337,3.1772 455.504,11.1772 458,23.5C 458.667,49.1667 458.667,74.8333 458,100.5C 452.956,107.15 447.956,107.15 443,100.5C 442.667,75.5 442.333,50.5 442,25.5C 440.932,20.7647 438.099,17.5981 433.5,16C 368.545,14.5141 303.545,14.0141 238.5,14.5C 238.5,175.167 238.5,335.833 238.5,496.5C 302.168,496.667 365.834,496.5 429.5,496C 436.132,495.364 440.298,491.864 442,485.5C 442.333,366.833 442.667,248.167 443,129.5C 445.913,124.311 450.08,123.144 455.5,126C 456.701,126.903 457.535,128.069 458,129.5C 458.667,248.833 458.667,368.167 458,487.5C 455.504,499.823 448.337,507.823 436.5,511.5C 315.833,511.5 195.167,511.5 74.5,511.5C 62.6628,507.823 55.4961,499.823 53,487.5C 52.3333,332.833 52.3333,178.167 53,23.5C 55.4961,11.1772 62.6628,3.1772 74.5,-0.5 Z M 81.5,14.5 C 128.5,14.5 175.5,14.5 222.5,14.5C 222.5,175.167 222.5,335.833 222.5,496.5C 175.499,496.667 128.499,496.5 81.5,496C 74.8683,495.364 70.7017,491.864 69,485.5C 68.3333,332.167 68.3333,178.833 69,25.5C 70.8906,19.1527 75.0573,15.4861 81.5,14.5 Z M 140.5,71.5 C 164.374,71.014 180.207,82.014 188,104.5C 191.204,116.686 189.371,128.019 182.5,138.5C 178.5,133.833 174.167,129.5 169.5,125.5C 175.715,103.939 167.715,91.2719 145.5,87.5C 123.86,91.4329 115.86,104.1 121.5,125.5C 117.037,129.132 113.037,133.299 109.5,138C 108.668,138.688 108.002,138.521 107.5,137.5C 96.1316,111.463 102.465,90.9627 126.5,76C 131.184,74.1702 135.851,72.6702 140.5,71.5 Z M 143.5,103.5 C 155.74,105.229 158.74,111.396 152.5,122C 145.415,126.292 139.915,124.792 136,117.5C 134.595,110.639 137.095,105.973 143.5,103.5 Z M 132.5,138.5 C 136.799,139.324 141.133,139.991 145.5,140.5C 149.865,139.818 154.198,139.318 158.5,139C 163.641,141.641 167.641,145.474 170.5,150.5C 165.454,155.188 159.454,158.021 152.5,159C 140.692,160.715 130.026,158.048 120.5,151C 124.03,146.305 128.03,142.138 132.5,138.5 Z M 101.5,246.5 C 130.833,246.5 160.167,246.5 189.5,246.5C 189.5,254.167 189.5,261.833 189.5,269.5C 160.167,269.5 130.833,269.5 101.5,269.5C 101.5,261.833 101.5,254.167 101.5,246.5 Z M 101.5,405.5 C 130.833,405.5 160.167,405.5 189.5,405.5C 189.5,413.167 189.5,420.833 189.5,428.5C 160.167,428.5 130.833,428.5 101.5,428.5C 101.5,420.833 101.5,413.167 101.5,405.5 Z"/></g>
<g><path style="opacity:0.93" fill="#000000" d="M 138.5,55.5 C 174.359,54.8283 196.526,71.8283 205,106.5C 207.876,134.249 197.376,155.083 173.5,169C 141.053,182.181 114.553,174.681 94,146.5C 81.4108,122.415 83.0774,99.415 99,77.5C 109.556,65.3091 122.723,57.9758 138.5,55.5 Z M 140.5,71.5 C 135.851,72.6702 131.184,74.1702 126.5,76C 102.465,90.9627 96.1316,111.463 107.5,137.5C 108.002,138.521 108.668,138.688 109.5,138C 113.037,133.299 117.037,129.132 121.5,125.5C 115.86,104.1 123.86,91.4329 145.5,87.5C 167.715,91.2719 175.715,103.939 169.5,125.5C 174.167,129.5 178.5,133.833 182.5,138.5C 189.371,128.019 191.204,116.686 188,104.5C 180.207,82.014 164.374,71.014 140.5,71.5 Z M 143.5,103.5 C 137.095,105.973 134.595,110.639 136,117.5C 139.915,124.792 145.415,126.292 152.5,122C 158.74,111.396 155.74,105.229 143.5,103.5 Z M 132.5,138.5 C 128.03,142.138 124.03,146.305 120.5,151C 130.026,158.048 140.692,160.715 152.5,159C 159.454,158.021 165.454,155.188 170.5,150.5C 167.641,145.474 163.641,141.641 158.5,139C 154.198,139.318 149.865,139.818 145.5,140.5C 141.133,139.991 136.799,139.324 132.5,138.5 Z"/></g>
<g><path style="opacity:0.918" fill="#000000" d="M 304.5,77.5 C 314.707,76.9054 324.04,79.4054 332.5,85C 336.338,94.8301 333.004,99.1635 322.5,98C 307.868,90.2849 296.701,93.7849 289,108.5C 286.099,122.865 291.599,132.365 305.5,137C 313.143,138.23 319.476,135.897 324.5,130C 334.569,128.732 338.069,132.898 335,142.5C 324.775,152.765 312.609,155.932 298.5,152C 277.341,143.519 268.841,128.019 273,105.5C 278.076,89.9165 288.576,80.5831 304.5,77.5 Z"/></g>
<g><path style="opacity:0.917" fill="#000000" d="M 360.5,77.5 C 363.862,77.0695 366.695,78.0695 369,80.5C 374.197,94.4241 379.197,108.424 384,122.5C 388.803,108.424 393.803,94.4241 399,80.5C 404.796,75.9477 409.463,76.9477 413,83.5C 413.328,86.2071 412.995,88.8738 412,91.5C 405.667,110.5 399.333,129.5 393,148.5C 388.652,154.03 383.485,154.863 377.5,151C 369.808,130.26 362.308,109.426 355,88.5C 353.91,83.2225 355.744,79.5559 360.5,77.5 Z"/></g>
<g><path style="opacity:0.931" fill="#000000" d="M 268.5,196.5 C 316.168,196.333 363.834,196.5 411.5,197C 419.411,200.555 420.411,205.555 414.5,212C 364.833,212.667 315.167,212.667 265.5,212C 259.641,205.462 260.641,200.295 268.5,196.5 Z"/></g>
<g><path style="opacity:0.935" fill="#000000" d="M 97.5,230.5 C 130.562,230.021 163.562,230.521 196.5,232C 200.388,234.222 203.221,237.388 205,241.5C 205.935,253.238 205.602,264.905 204,276.5C 201.303,281.436 197.136,284.27 191.5,285C 159.452,285.97 127.452,285.637 95.5,284C 90.5768,281.673 87.4101,277.84 86,272.5C 85.3333,262.5 85.3333,252.5 86,242.5C 88.0188,236.65 91.8522,232.65 97.5,230.5 Z M 101.5,246.5 C 101.5,254.167 101.5,261.833 101.5,269.5C 130.833,269.5 160.167,269.5 189.5,269.5C 189.5,261.833 189.5,254.167 189.5,246.5C 160.167,246.5 130.833,246.5 101.5,246.5 Z"/></g>
<g><path style="opacity:0.932" fill="#000000" d="M 268.5,242.5 C 316.168,242.333 363.834,242.5 411.5,243C 419.421,246.605 420.421,251.605 414.5,258C 364.833,258.667 315.167,258.667 265.5,258C 259.641,251.462 260.641,246.295 268.5,242.5 Z"/></g>
<g><path style="opacity:0.926" fill="#000000" d="M 269.5,288.5 C 293.169,288.333 316.836,288.5 340.5,289C 347.398,290.687 349.564,294.854 347,301.5C 346.167,302.333 345.333,303.167 344.5,304C 318.167,304.667 291.833,304.667 265.5,304C 259.429,296.846 260.762,291.68 269.5,288.5 Z"/></g>
<g><path style="opacity:0.931" fill="#000000" d="M 100.5,309.5 C 132.216,309.03 163.883,309.53 195.5,311C 200.428,312.927 203.594,316.427 205,321.5C 205.667,332.167 205.667,342.833 205,353.5C 202.833,358.333 199.333,361.833 194.5,364C 176.833,364.667 159.167,364.667 141.5,364C 134.599,358.58 134.933,353.58 142.5,349C 158.163,348.5 173.83,348.333 189.5,348.5C 189.5,340.833 189.5,333.167 189.5,325.5C 160.498,325.333 131.498,325.5 102.5,326C 101.519,333.413 101.186,340.913 101.5,348.5C 105.936,348.21 110.27,348.71 114.5,350C 118.779,355.033 118.446,359.7 113.5,364C 107.083,364.87 100.749,364.536 94.5,363C 91.3333,361.167 88.8333,358.667 87,355.5C 85.4025,344.573 85.0692,333.573 86,322.5C 88.5334,315.46 93.3667,311.127 100.5,309.5 Z"/></g>
<g><path style="opacity:0.989" fill="#000000" d="M 265.5,335.5 C 315.168,335.333 364.834,335.5 414.5,336C 419.833,340.667 419.833,345.333 414.5,350C 364.833,350.667 315.167,350.667 265.5,350C 260.232,345.171 260.232,340.337 265.5,335.5 Z"/></g>
<g><path style="opacity:0.989" fill="#000000" d="M 265.5,381.5 C 315.168,381.333 364.834,381.5 414.5,382C 419.833,386.667 419.833,391.333 414.5,396C 364.833,396.667 315.167,396.667 265.5,396C 260.232,391.171 260.232,386.337 265.5,381.5 Z"/></g>
<g><path style="opacity:0.935" fill="#000000" d="M 97.5,389.5 C 130.562,389.021 163.562,389.521 196.5,391C 200.388,393.222 203.221,396.388 205,400.5C 205.935,412.238 205.602,423.905 204,435.5C 201.545,440.149 197.712,442.983 192.5,444C 160.119,444.971 127.786,444.637 95.5,443C 90.8526,440.894 87.686,437.394 86,432.5C 85.3333,422.167 85.3333,411.833 86,401.5C 88.0188,395.65 91.8522,391.65 97.5,389.5 Z M 101.5,405.5 C 101.5,413.167 101.5,420.833 101.5,428.5C 130.833,428.5 160.167,428.5 189.5,428.5C 189.5,420.833 189.5,413.167 189.5,405.5C 160.167,405.5 130.833,405.5 101.5,405.5 Z"/></g>
<g><path style="opacity:0.925" fill="#000000" d="M 266.5,428.5 C 292.169,428.333 317.835,428.5 343.5,429C 350.321,434.394 349.987,439.394 342.5,444C 317.5,444.667 292.5,444.667 267.5,444C 259.97,439.215 259.637,434.048 266.5,428.5 Z"/></g>
</svg>
