<?xml version="1.0" encoding="UTF-8" standalone="no"?>
<!-- Generated by IcoMoon.io -->

<svg
   version="1.1"
   width="24"
   height="24"
   viewBox="0 0 24 24"
   id="svg1"
   sodipodi:docname="devices.svg"
   xmlns:inkscape="http://www.inkscape.org/namespaces/inkscape"
   xmlns:sodipodi="http://sodipodi.sourceforge.net/DTD/sodipodi-0.dtd"
   xmlns="http://www.w3.org/2000/svg"
   xmlns:svg="http://www.w3.org/2000/svg">
  <defs
     id="defs1" />
  <sodipodi:namedview
     id="namedview1"
     pagecolor="#505050"
     bordercolor="#ffffff"
     borderopacity="1"
     inkscape:showpageshadow="0"
     inkscape:pageopacity="0"
     inkscape:pagecheckerboard="1"
     inkscape:deskcolor="#505050">
    <inkscape:page
       x="0"
       y="0"
       width="24"
       height="24"
       id="page2"
       margin="0"
       bleed="0" />
  </sodipodi:namedview>
  <path
     d="M 21.984,17.016 V 9.985 H 18 v 7.031 z m 1.032,-9 q 0.422,0 0.703,0.281 Q 24,8.578 24,9 v 9.984 q 0,0.422 -0.281,0.727 -0.281,0.305 -0.703,0.305 h -6 q -0.422,0 -0.727,-0.305 -0.305,-0.305 -0.305,-0.727 V 9 q 0,-0.422 0.305,-0.703 0.305,-0.281 0.727,-0.281 z M 3.984,6 v 11.016 h 10.031 v 3 H -0.001 v -3 H 2.015 V 6 q 0,-0.797 0.586,-1.406 0.586,-0.609 1.383,-0.609 h 18 v 2.016 h -18 z"
     id="path1"
     style="fill:#f9f9f9" />
</svg>
