<?xml version="1.0" encoding="UTF-8"?>
<!DOCTYPE svg PUBLIC "-//W3C//DTD SVG 1.1//EN" "http://www.w3.org/Graphics/SVG/1.1/DTD/svg11.dtd">
<svg xmlns="http://www.w3.org/2000/svg" version="1.1" width="512px" height="512px" style="shape-rendering:geometricPrecision; text-rendering:geometricPrecision; image-rendering:optimizeQuality; fill-rule:evenodd; clip-rule:evenodd" xmlns:xlink="http://www.w3.org/1999/xlink">
<g><path style="opacity:0.963" fill="#000000" d="M 511.5,435.5 C 511.5,456.833 511.5,478.167 511.5,499.5C 510.684,501.144 509.35,502.31 507.5,503C 339.5,503.667 171.5,503.667 3.5,503C 1.64977,502.31 0.316435,501.144 -0.5,499.5C -0.5,478.167 -0.5,456.833 -0.5,435.5C 0.316435,433.856 1.64977,432.69 3.5,432C 9.83333,431.667 16.1667,431.333 22.5,431C 19.3725,426.625 17.2058,421.792 16,416.5C 15.3333,382.5 15.3333,348.5 16,314.5C 24.1667,273 49,248.167 90.5,240C 104.163,239.5 117.829,239.333 131.5,239.5C 131.799,237.396 131.466,235.396 130.5,233.5C 113.479,221.124 103.479,204.458 100.5,183.5C 83.8376,183.332 73.0043,175.332 68,159.5C 67.3333,139.833 67.3333,120.167 68,100.5C 76.568,53.5981 103.735,23.4314 149.5,10C 198.703,0.701575 237.87,16.2016 267,56.5C 280.917,80.2408 286.75,105.907 284.5,133.5C 284.543,142.205 284.043,150.872 283,159.5C 277.996,175.332 267.162,183.332 250.5,183.5C 247.54,204.278 237.706,220.945 221,233.5C 220.505,235.473 220.338,237.473 220.5,239.5C 233.504,239.333 246.504,239.5 259.5,240C 263.579,241.384 267.579,241.384 271.5,240C 338.167,239.333 404.833,239.333 471.5,240C 486.423,244.652 494.589,254.819 496,270.5C 496.667,319.167 496.667,367.833 496,416.5C 495.756,421.4 494.589,426.066 492.5,430.5C 497.467,431.329 502.467,431.829 507.5,432C 509.35,432.69 510.684,433.856 511.5,435.5 Z M 174.5,23.5 C 214.432,25.6351 242.932,44.6351 260,80.5C 265.534,94.0332 267.701,108.033 266.5,122.5C 260.383,120.238 254.05,118.904 247.5,118.5C 237.675,105.184 227.342,92.3506 216.5,80C 213.036,79.1834 209.702,79.5167 206.5,81C 187.46,102.001 163.793,114.335 135.5,118C 120.851,119.022 106.184,119.688 91.5,120C 89.2381,120.642 87.0715,121.475 85,122.5C 83.6747,79.8539 102.175,49.3539 140.5,31C 151.577,26.6613 162.911,24.1613 174.5,23.5 Z M 211.5,100.5 C 219.088,110.6 226.921,120.6 235,130.5C 236.109,149.249 235.443,167.915 233,186.5C 223.714,214.066 204.547,229.066 175.5,231.5C 144.15,228.647 124.65,211.98 117,181.5C 116.5,166.17 116.333,150.837 116.5,135.5C 153.093,136.642 184.76,124.975 211.5,100.5 Z M 94.5,136.5 C 96.1667,136.5 97.8333,136.5 99.5,136.5C 99.5,146.5 99.5,156.5 99.5,166.5C 87.6113,165.081 82.778,158.415 85,146.5C 87.0223,141.98 90.189,138.647 94.5,136.5 Z M 252.5,136.5 C 261.295,137.628 265.961,142.628 266.5,151.5C 265.961,160.372 261.295,165.372 252.5,166.5C 252.5,156.5 252.5,146.5 252.5,136.5 Z M 202.5,242.5 C 205.296,258.075 199.63,269.575 185.5,277C 167.816,281.575 155.649,275.408 149,258.5C 148.501,253.511 148.334,248.511 148.5,243.5C 161.233,247.241 174.233,248.407 187.5,247C 192.855,246.251 197.855,244.751 202.5,242.5 Z M 102.5,255.5 C 112.167,255.5 121.833,255.5 131.5,255.5C 135.304,280.741 149.97,294.075 175.5,295.5C 193.997,295.172 207.497,286.839 216,270.5C 218.103,265.698 219.269,260.698 219.5,255.5C 228.839,255.334 238.173,255.5 247.5,256C 248.624,256.249 249.624,256.749 250.5,257.5C 249.391,259.385 248.557,261.385 248,263.5C 247.5,306.165 247.333,348.832 247.5,391.5C 232.496,391.667 217.496,391.5 202.5,391C 193.127,383.314 182.461,378.314 170.5,376C 138.833,375.333 107.167,375.333 75.5,376C 73.6667,376.5 72.5,377.667 72,379.5C 71.0715,383.244 71.5715,386.744 73.5,390C 99.4108,391.482 125.411,391.982 151.5,391.5C 151.5,404.833 151.5,418.167 151.5,431.5C 119.498,431.667 87.4983,431.5 55.5,431C 44.2046,430.037 36.7046,424.204 33,413.5C 32.3333,381.167 32.3333,348.833 33,316.5C 41.7501,279.575 64.9168,259.242 102.5,255.5 Z M 279.5,255.5 C 340.834,255.333 402.168,255.5 463.5,256C 472.667,257.167 477.833,262.333 479,271.5C 479.667,319.5 479.667,367.5 479,415.5C 477.833,424.667 472.667,429.833 463.5,431C 397.168,431.5 330.834,431.667 264.5,431.5C 264.333,376.499 264.5,321.499 265,266.5C 267.821,260.023 272.655,256.356 279.5,255.5 Z M 365.5,320.5 C 379.568,318.614 389.068,324.281 394,337.5C 395.5,358 386,367.5 365.5,366C 348.991,358.814 344.491,346.98 352,330.5C 355.579,325.731 360.079,322.397 365.5,320.5 Z M 168.5,393.5 C 188.57,398.402 201.236,410.902 206.5,431C 193.838,431.5 181.171,431.667 168.5,431.5C 168.5,418.833 168.5,406.167 168.5,393.5 Z M 215.5,408.5 C 225.987,407.506 236.654,407.172 247.5,407.5C 247.5,415.5 247.5,423.5 247.5,431.5C 239.5,431.5 231.5,431.5 223.5,431.5C 222.771,423.066 220.104,415.4 215.5,408.5 Z M 15.5,447.5 C 175.5,447.5 335.5,447.5 495.5,447.5C 495.5,460.833 495.5,474.167 495.5,487.5C 335.5,487.5 175.5,487.5 15.5,487.5C 15.5,474.167 15.5,460.833 15.5,447.5 Z"/></g>
<g><path style="opacity:0.928" fill="#000000" d="M 362.5,303.5 C 385.329,300.547 401.163,309.547 410,330.5C 415.718,354.897 407.218,372.064 384.5,382C 360.103,387.718 342.936,379.218 333,356.5C 327.424,329.977 337.257,312.31 362.5,303.5 Z M 365.5,320.5 C 360.079,322.397 355.579,325.731 352,330.5C 344.491,346.98 348.991,358.814 365.5,366C 386,367.5 395.5,358 394,337.5C 389.068,324.281 379.568,318.614 365.5,320.5 Z"/></g>
</svg>
