<?xml version="1.0" encoding="UTF-8" standalone="no"?>
<!-- Generated by IcoMoon.io -->

<svg
   version="1.1"
   width="28"
   height="28"
   viewBox="0 0 28 28"
   id="svg1"
   sodipodi:docname="amha.svg"
   inkscape:export-filename="amha.svg"
   inkscape:export-xdpi="96"
   inkscape:export-ydpi="96"
   inkscape:version="1.4 (e7c3feb100, 2024-10-09)"
   xmlns:inkscape="http://www.inkscape.org/namespaces/inkscape"
   xmlns:sodipodi="http://sodipodi.sourceforge.net/DTD/sodipodi-0.dtd"
   xmlns="http://www.w3.org/2000/svg"
   xmlns:svg="http://www.w3.org/2000/svg">
  <defs
     id="defs1" />
  <sodipodi:namedview
     id="namedview1"
     pagecolor="#505050"
     bordercolor="#ffffff"
     borderopacity="1"
     inkscape:showpageshadow="0"
     inkscape:pageopacity="0"
     inkscape:pagecheckerboard="1"
     inkscape:deskcolor="#505050"
     inkscape:lockguides="true"
     inkscape:zoom="20.228305"
     inkscape:cx="7.0693022"
     inkscape:cy="14.904858"
     inkscape:window-width="1920"
     inkscape:window-height="1003"
     inkscape:window-x="1080"
     inkscape:window-y="0"
     inkscape:window-maximized="1"
     inkscape:current-layer="svg1">
    <inkscape:page
       x="0"
       y="0"
       width="28"
       height="28"
       id="page2"
       margin="0"
       bleed="0" />
  </sodipodi:namedview>
  <path
     d="m 21.74373,3.1308602 c 0.423581,0 0.774372,0.3516943 0.774372,0.776367 V 24.092772 c 0,0.424673 -0.350791,0.776368 -0.774372,0.776368 H 6.2562706 c -0.4235819,0 -0.7743728,-0.351695 -0.7743728,-0.776368 V 3.9072272 c 0,-0.4246727 0.3507909,-0.776367 0.7743728,-0.776367 z m -10.066849,3.493652 v 0.7763671 c 0,0.2181591 0.169588,0.3881836 0.387187,0.3881836 h 0.774373 c 0.217598,0 0.387186,-0.1700245 0.387186,-0.3881836 V 6.6245122 c 0,-0.2181593 -0.169588,-0.3881835 -0.387186,-0.3881835 h -0.774373 c -0.217599,0 -0.387187,0.1700242 -0.387187,0.3881835 z m 0,3.1054686 v 0.7763672 c 0,0.218159 0.169588,0.388183 0.387187,0.388183 h 0.774373 c 0.217598,0 0.387186,-0.170024 0.387186,-0.388183 V 9.7299808 c 0,-0.2181593 -0.169588,-0.3881838 -0.387186,-0.3881838 h -0.774373 c -0.217599,0 -0.387187,0.1700245 -0.387187,0.3881838 z m 0,3.1054692 v 0.776366 C 11.676881,13.829975 11.846469,14 12.064068,14 h 0.774373 c 0.217598,0 0.387186,-0.170025 0.387186,-0.388184 V 12.83545 c 0,-0.21816 -0.169588,-0.388184 -0.387186,-0.388184 h -0.774373 c -0.217599,0 -0.387187,0.170024 -0.387187,0.388184 z m 0,3.105468 v 0.776367 c 0,0.218159 0.169588,0.388184 0.387187,0.388184 h 0.774373 c 0.217598,0 0.387186,-0.170025 0.387186,-0.388184 v -0.776367 c 0,-0.218159 -0.169588,-0.388184 -0.387186,-0.388184 h -0.774373 c -0.217599,0 -0.387187,0.170025 -0.387187,0.388184 z m -1.548746,3.881835 v -0.776366 c 0,-0.21816 -0.1695872,-0.388184 -0.387186,-0.388184 H 8.9665761 c -0.2175989,0 -0.3871866,0.170024 -0.3871866,0.388184 v 0.776366 c 0,0.21816 0.1695877,0.388183 0.3871866,0.388183 H 9.740949 c 0.2175988,0 0.387186,-0.170023 0.387186,-0.388183 z m 0,-3.105468 v -0.776367 c 0,-0.218159 -0.1695872,-0.388184 -0.387186,-0.388184 H 8.9665761 c -0.2175989,0 -0.3871866,0.170025 -0.3871866,0.388184 v 0.776367 c 0,0.218159 0.1695877,0.388184 0.3871866,0.388184 H 9.740949 c 0.2175988,0 0.387186,-0.170025 0.387186,-0.388184 z m 0,-3.105469 V 12.83545 c 0,-0.21816 -0.1695872,-0.388184 -0.387186,-0.388184 H 8.9665761 c -0.2175989,0 -0.3871866,0.170024 -0.3871866,0.388184 v 0.776366 C 8.5793896,13.829975 8.7489772,14 8.9665761,14 H 9.740949 c 0.2175988,0 0.387186,-0.170025 0.387186,-0.388184 z m 0,-3.105468 V 9.7299808 c 0,-0.2181593 -0.1695872,-0.3881838 -0.387186,-0.3881838 H 8.9665761 c -0.2175989,0 -0.3871866,0.1700245 -0.3871866,0.3881838 v 0.7763672 c 0,0.218159 0.1695877,0.388183 0.3871866,0.388183 H 9.740949 c 0.2175988,0 0.387186,-0.170024 0.387186,-0.388183 z m 0,-3.1054687 V 6.6245122 c 0,-0.2181593 -0.1695872,-0.3881835 -0.387186,-0.3881835 H 8.9665761 c -0.2175989,0 -0.3871866,0.1700242 -0.3871866,0.3881835 v 0.7763671 c 0,0.2181591 0.1695877,0.3881836 0.3871866,0.3881836 H 9.740949 c 0.2175988,0 0.387186,-0.1700245 0.387186,-0.3881836 z M 16.323118,22.928222 V 20.59912 c 0,-0.218159 -0.169586,-0.388184 -0.387186,-0.388184 h -3.871864 c -0.217599,0 -0.387187,0.170025 -0.387187,0.388184 v 2.329102 c 0,0.218159 0.169588,0.388184 0.387187,0.388184 h 3.871864 c 0.2176,0 0.387186,-0.170025 0.387186,-0.388184 z m 0,-6.210937 v -0.776367 c 0,-0.218159 -0.169586,-0.388184 -0.387186,-0.388184 H 15.16156 c -0.2176,0 -0.387188,0.170025 -0.387188,0.388184 v 0.776367 c 0,0.218159 0.169588,0.388184 0.387188,0.388184 h 0.774372 c 0.2176,0 0.387186,-0.170025 0.387186,-0.388184 z m 0,-3.105469 V 12.83545 c 0,-0.21816 -0.169586,-0.388184 -0.387186,-0.388184 H 15.16156 c -0.2176,0 -0.387188,0.170024 -0.387188,0.388184 v 0.776366 C 14.774372,13.829975 14.94396,14 15.16156,14 h 0.774372 c 0.2176,0 0.387186,-0.170025 0.387186,-0.388184 z m 0,-3.105468 V 9.7299808 c 0,-0.2181593 -0.169586,-0.3881838 -0.387186,-0.3881838 H 15.16156 c -0.2176,0 -0.387188,0.1700245 -0.387188,0.3881838 v 0.7763672 c 0,0.218159 0.169588,0.388183 0.387188,0.388183 h 0.774372 c 0.2176,0 0.387186,-0.170024 0.387186,-0.388183 z m 0,-3.1054687 V 6.6245122 c 0,-0.2181593 -0.169586,-0.3881835 -0.387186,-0.3881835 H 15.16156 c -0.2176,0 -0.387188,0.1700242 -0.387188,0.3881835 v 0.7763671 c 0,0.2181591 0.169588,0.3881836 0.387188,0.3881836 h 0.774372 c 0.2176,0 0.387186,-0.1700245 0.387186,-0.3881836 z M 19.42061,19.822753 v -0.776366 c 0,-0.21816 -0.169588,-0.388184 -0.387186,-0.388184 h -0.774372 c -0.2176,0 -0.387188,0.170024 -0.387188,0.388184 v 0.776366 c 0,0.21816 0.169588,0.388183 0.387188,0.388183 h 0.774372 c 0.217598,0 0.387186,-0.170023 0.387186,-0.388183 z m 0,-3.105468 v -0.776367 c 0,-0.218159 -0.169588,-0.388184 -0.387186,-0.388184 h -0.774372 c -0.2176,0 -0.387188,0.170025 -0.387188,0.388184 v 0.776367 c 0,0.218159 0.169588,0.388184 0.387188,0.388184 h 0.774372 c 0.217598,0 0.387186,-0.170025 0.387186,-0.388184 z m 0,-3.105469 V 12.83545 c 0,-0.21816 -0.169588,-0.388184 -0.387186,-0.388184 h -0.774372 c -0.2176,0 -0.387188,0.170024 -0.387188,0.388184 v 0.776366 C 17.871864,13.829975 18.041452,14 18.259052,14 h 0.774372 c 0.217598,0 0.387186,-0.170025 0.387186,-0.388184 z m 0,-3.105468 V 9.7299808 c 0,-0.2181593 -0.169588,-0.3881838 -0.387186,-0.3881838 h -0.774372 c -0.2176,0 -0.387188,0.1700245 -0.387188,0.3881838 v 0.7763672 c 0,0.218159 0.169588,0.388183 0.387188,0.388183 h 0.774372 c 0.217598,0 0.387186,-0.170024 0.387186,-0.388183 z m 0,-3.1054687 V 6.6245122 c 0,-0.2181593 -0.169588,-0.3881835 -0.387186,-0.3881835 h -0.774372 c -0.2176,0 -0.387188,0.1700242 -0.387188,0.3881835 v 0.7763671 c 0,0.2181591 0.169588,0.3881836 0.387188,0.3881836 h 0.774372 c 0.217598,0 0.387186,-0.1700245 0.387186,-0.3881836 z"
     id="path1"
     style="fill:#ffffff;stroke-width:0.775369" />
</svg>
