<?xml version="1.0" encoding="UTF-8" standalone="no"?>
<!-- Generated by IcoMoon.io -->

<svg
   version="1.1"
   width="22"
   height="28"
   viewBox="0 0 22 28"
   id="svg1"
   sodipodi:docname="amha.svg"
   inkscape:export-filename="amha.svg"
   inkscape:export-xdpi="96"
   inkscape:export-ydpi="96"
   xmlns:inkscape="http://www.inkscape.org/namespaces/inkscape"
   xmlns:sodipodi="http://sodipodi.sourceforge.net/DTD/sodipodi-0.dtd"
   xmlns="http://www.w3.org/2000/svg"
   xmlns:svg="http://www.w3.org/2000/svg">
  <defs
     id="defs1" />
  <sodipodi:namedview
     id="namedview1"
     pagecolor="#505050"
     bordercolor="#ffffff"
     borderopacity="1"
     inkscape:showpageshadow="0"
     inkscape:pageopacity="0"
     inkscape:pagecheckerboard="1"
     inkscape:deskcolor="#505050">
    <inkscape:page
       x="0"
       y="0"
       width="22"
       height="28"
       id="page2"
       margin="0"
       bleed="0" />
  </sodipodi:namedview>
  <path
     d="m 18.74373,3.6004994 c 0.423581,0 0.774372,0.3364981 0.774372,0.7428214 V 23.656679 c 0,0.406323 -0.350791,0.742822 -0.774372,0.742822 H 3.2562705 c -0.4235819,0 -0.7743728,-0.336499 -0.7743728,-0.742822 V 4.3433208 c 0,-0.4063233 0.3507909,-0.7428214 0.7743728,-0.7428214 z M 8.6768812,6.943196 v 0.7428215 c 0,0.2087328 0.1695876,0.3714108 0.3871864,0.3714108 h 0.774373 c 0.2175984,0 0.3871864,-0.162678 0.3871864,-0.3714108 V 6.943196 c 0,-0.2087329 -0.169588,-0.3714107 -0.3871864,-0.3714107 h -0.774373 c -0.2175988,0 -0.3871864,0.1626778 -0.3871864,0.3714107 z m 0,2.9712859 v 0.7428211 c 0,0.208733 0.1695876,0.371411 0.3871864,0.371411 h 0.774373 c 0.2175984,0 0.3871864,-0.162678 0.3871864,-0.371411 V 9.9144819 c 0,-0.2087328 -0.169588,-0.3714108 -0.3871864,-0.3714108 h -0.774373 c -0.2175988,0 -0.3871864,0.162678 -0.3871864,0.3714108 z m 0,2.9712861 v 0.742821 C 8.6768812,13.837322 8.8464688,14 9.0640676,14 h 0.774373 c 0.2175984,0 0.3871864,-0.162678 0.3871864,-0.371411 v -0.742821 c 0,-0.208733 -0.169588,-0.371411 -0.3871864,-0.371411 h -0.774373 c -0.2175988,0 -0.3871864,0.162678 -0.3871864,0.371411 z m 0,2.971286 v 0.742821 c 0,0.208733 0.1695876,0.371411 0.3871864,0.371411 h 0.774373 c 0.2175984,0 0.3871864,-0.162678 0.3871864,-0.371411 v -0.742821 c 0,-0.208733 -0.169588,-0.371411 -0.3871864,-0.371411 h -0.774373 c -0.2175988,0 -0.3871864,0.162678 -0.3871864,0.371411 z M 7.1281353,19.571161 V 18.82834 c 0,-0.208733 -0.1695877,-0.371411 -0.3871865,-0.371411 H 5.9665759 c -0.2175988,0 -0.3871865,0.162678 -0.3871865,0.371411 v 0.742821 c 0,0.208733 0.1695877,0.37141 0.3871865,0.37141 h 0.7743729 c 0.2175988,0 0.3871865,-0.162677 0.3871865,-0.37141 z m 0,-2.971286 v -0.742821 c 0,-0.208733 -0.1695877,-0.371411 -0.3871865,-0.371411 H 5.9665759 c -0.2175988,0 -0.3871865,0.162678 -0.3871865,0.371411 v 0.742821 c 0,0.208733 0.1695877,0.371411 0.3871865,0.371411 h 0.7743729 c 0.2175988,0 0.3871865,-0.162678 0.3871865,-0.371411 z m 0,-2.971286 v -0.742821 c 0,-0.208733 -0.1695877,-0.371411 -0.3871865,-0.371411 H 5.9665759 c -0.2175988,0 -0.3871865,0.162678 -0.3871865,0.371411 v 0.742821 C 5.5793894,13.837322 5.7489771,14 5.9665759,14 h 0.7743729 c 0.2175988,0 0.3871865,-0.162678 0.3871865,-0.371411 z m 0,-2.971286 V 9.9144819 c 0,-0.2087328 -0.1695877,-0.3714108 -0.3871865,-0.3714108 H 5.9665759 c -0.2175988,0 -0.3871865,0.162678 -0.3871865,0.3714108 v 0.7428211 c 0,0.208733 0.1695877,0.371411 0.3871865,0.371411 h 0.7743729 c 0.2175988,0 0.3871865,-0.162678 0.3871865,-0.371411 z m 0,-2.9712855 V 6.943196 c 0,-0.2087329 -0.1695877,-0.3714107 -0.3871865,-0.3714107 H 5.9665759 c -0.2175988,0 -0.3871865,0.1626778 -0.3871865,0.3714107 v 0.7428215 c 0,0.2087328 0.1695877,0.3714108 0.3871865,0.3714108 h 0.7743729 c 0.2175988,0 0.3871865,-0.162678 0.3871865,-0.3714108 z M 13.323118,22.542447 v -2.228465 c 0,-0.208733 -0.169586,-0.371411 -0.387186,-0.371411 H 9.0640676 c -0.2175988,0 -0.3871864,0.162678 -0.3871864,0.371411 v 2.228465 c 0,0.208733 0.1695876,0.371411 0.3871864,0.371411 h 3.8718644 c 0.2176,0 0.387186,-0.162678 0.387186,-0.371411 z m 0,-5.942572 v -0.742821 c 0,-0.208733 -0.169586,-0.371411 -0.387186,-0.371411 H 12.16156 c -0.2176,0 -0.387188,0.162678 -0.387188,0.371411 v 0.742821 c 0,0.208733 0.169588,0.371411 0.387188,0.371411 h 0.774372 c 0.2176,0 0.387186,-0.162678 0.387186,-0.371411 z m 0,-2.971286 v -0.742821 c 0,-0.208733 -0.169586,-0.371411 -0.387186,-0.371411 H 12.16156 c -0.2176,0 -0.387188,0.162678 -0.387188,0.371411 v 0.742821 C 11.774372,13.837322 11.94396,14 12.16156,14 h 0.774372 c 0.2176,0 0.387186,-0.162678 0.387186,-0.371411 z m 0,-2.971286 V 9.9144819 c 0,-0.2087328 -0.169586,-0.3714108 -0.387186,-0.3714108 H 12.16156 c -0.2176,0 -0.387188,0.162678 -0.387188,0.3714108 v 0.7428211 c 0,0.208733 0.169588,0.371411 0.387188,0.371411 h 0.774372 c 0.2176,0 0.387186,-0.162678 0.387186,-0.371411 z m 0,-2.9712855 V 6.943196 c 0,-0.2087329 -0.169586,-0.3714107 -0.387186,-0.3714107 H 12.16156 c -0.2176,0 -0.387188,0.1626778 -0.387188,0.3714107 v 0.7428215 c 0,0.2087328 0.169588,0.3714108 0.387188,0.3714108 h 0.774372 c 0.2176,0 0.387186,-0.162678 0.387186,-0.3714108 z M 16.42061,19.571161 V 18.82834 c 0,-0.208733 -0.169588,-0.371411 -0.387186,-0.371411 h -0.774372 c -0.2176,0 -0.387188,0.162678 -0.387188,0.371411 v 0.742821 c 0,0.208733 0.169588,0.37141 0.387188,0.37141 h 0.774372 c 0.217598,0 0.387186,-0.162677 0.387186,-0.37141 z m 0,-2.971286 v -0.742821 c 0,-0.208733 -0.169588,-0.371411 -0.387186,-0.371411 h -0.774372 c -0.2176,0 -0.387188,0.162678 -0.387188,0.371411 v 0.742821 c 0,0.208733 0.169588,0.371411 0.387188,0.371411 h 0.774372 c 0.217598,0 0.387186,-0.162678 0.387186,-0.371411 z m 0,-2.971286 v -0.742821 c 0,-0.208733 -0.169588,-0.371411 -0.387186,-0.371411 h -0.774372 c -0.2176,0 -0.387188,0.162678 -0.387188,0.371411 v 0.742821 C 14.871864,13.837322 15.041452,14 15.259052,14 h 0.774372 c 0.217598,0 0.387186,-0.162678 0.387186,-0.371411 z m 0,-2.971286 V 9.9144819 c 0,-0.2087328 -0.169588,-0.3714108 -0.387186,-0.3714108 h -0.774372 c -0.2176,0 -0.387188,0.162678 -0.387188,0.3714108 v 0.7428211 c 0,0.208733 0.169588,0.371411 0.387188,0.371411 h 0.774372 c 0.217598,0 0.387186,-0.162678 0.387186,-0.371411 z m 0,-2.9712855 V 6.943196 c 0,-0.2087329 -0.169588,-0.3714107 -0.387186,-0.3714107 h -0.774372 c -0.2176,0 -0.387188,0.1626778 -0.387188,0.3714107 v 0.7428215 c 0,0.2087328 0.169588,0.3714108 0.387188,0.3714108 h 0.774372 c 0.217598,0 0.387186,-0.162678 0.387186,-0.3714108 z"
     id="path1"
     style="fill:#ffffff;stroke-width:0.758433" />
</svg>
