<?xml version="1.0" encoding="UTF-8" standalone="no"?>
<!-- Generated by IcoMoon.io -->

<svg
   version="1.1"
   width="32"
   height="32"
   viewBox="0 0 32 32"
   id="svg1"
   sodipodi:docname="herb.svg"
   xmlns:inkscape="http://www.inkscape.org/namespaces/inkscape"
   xmlns:sodipodi="http://sodipodi.sourceforge.net/DTD/sodipodi-0.dtd"
   xmlns="http://www.w3.org/2000/svg"
   xmlns:svg="http://www.w3.org/2000/svg">
  <defs
     id="defs1" />
  <sodipodi:namedview
     id="namedview1"
     pagecolor="#505050"
     bordercolor="#ffffff"
     borderopacity="1"
     inkscape:showpageshadow="0"
     inkscape:pageopacity="0"
     inkscape:pagecheckerboard="1"
     inkscape:deskcolor="#505050">
    <inkscape:page
       x="0"
       y="0"
       width="32"
       height="32"
       id="page2"
       margin="0"
       bleed="0" />
  </sodipodi:namedview>
  <path
     d="M 29.61694,5.9426582 C 26.597316,3.7062489 21.950534,2.3710537 17.18684,2.3710537 11.294169,2.3710537 6.4929586,4.38152 4.013395,7.8866205 2.8486457,9.5330202 2.2047619,11.482098 2.0991928,13.680992 c -0.094227,1.957605 0.2425471,4.122394 0.9998522,6.451739 2.5868776,-7.57719 9.810068,-13.5113913 18.13868,-13.5113913 0,0 -7.792915,2.004498 -12.6927137,8.2115353 -0.00262,0.0034 -0.068053,0.0827 -0.1806016,0.231912 -0.9841477,1.286596 -1.841787,2.748831 -2.4830535,4.404609 -1.0870993,2.526298 -2.0939313,5.993884 -2.0939313,10.17255 h 3.4898855 c 0,0 -0.5295901,-3.256137 0.3917396,-7.001675 1.5242075,0.201218 2.886135,0.300974 4.11283,0.300974 3.208077,0 5.490462,-0.678682 7.181312,-2.134949 1.51461,-1.305353 2.350438,-3.05833 3.234251,-4.914473 1.350586,-2.834945 2.880901,-6.0484509 7.324397,-8.5304134 0.254762,-0.1423867 0.418787,-0.3990238 0.437981,-0.6855025 0.01919,-0.2864786 -0.109932,-0.5618733 -0.343754,-0.7349542 z"
     id="path1"
     style="fill:#ffffff;stroke-width:0.862486" />
</svg>
