<?xml version="1.0" encoding="UTF-8"?>
<!DOCTYPE svg PUBLIC "-//W3C//DTD SVG 1.1//EN" "http://www.w3.org/Graphics/SVG/1.1/DTD/svg11.dtd">
<svg xmlns="http://www.w3.org/2000/svg" version="1.1" width="512px" height="512px" style="shape-rendering:geometricPrecision; text-rendering:geometricPrecision; image-rendering:optimizeQuality; fill-rule:evenodd; clip-rule:evenodd" xmlns:xlink="http://www.w3.org/1999/xlink">
<g><path style="opacity:0.083" fill="#656564" d="M 511.5,238.5 C 511.5,242.833 511.5,247.167 511.5,251.5C 506.267,276.637 496.1,299.637 481,320.5C 472.809,329.69 464.309,338.523 455.5,347C 447.911,352.378 440.411,357.878 433,363.5C 424.41,378.43 413.91,391.93 401.5,404C 392.377,410.788 383.544,417.954 375,425.5C 367.661,454.359 353.494,479.192 332.5,500C 323.205,507.169 316.538,505.336 312.5,494.5C 317.558,482.843 322.724,471.176 328,459.5C 329.972,453.944 331.472,448.278 332.5,442.5C 313.04,446.779 293.373,448.279 273.5,447C 267.531,451.967 261.865,457.301 256.5,463C 251.612,467.849 246.278,468.516 240.5,465C 237.17,461.179 236.67,457.012 239,452.5C 240.752,449.328 242.752,446.328 245,443.5C 245.684,442.216 245.517,441.049 244.5,440C 229.735,434.951 215.735,428.284 202.5,420C 201.167,419.333 199.833,419.333 198.5,420C 193.703,424.122 188.87,423.955 184,419.5C 177.694,410.556 172.694,400.889 169,390.5C 141.605,359.507 127.438,323.173 126.5,281.5C 127.284,269.084 128.451,256.751 130,244.5C 78.3984,197.695 58.7317,140.028 71,71.5C 79.0633,64.4862 85.73,65.8195 91,75.5C 101.028,101.192 116.194,123.359 136.5,142C 141.15,145.992 146.15,149.492 151.5,152.5C 152.086,152.291 152.586,151.957 153,151.5C 157.294,123.564 169.794,100.064 190.5,81C 195.44,77.3421 200.774,76.6755 206.5,79C 222.986,91.4854 235.82,106.985 245,125.5C 245.739,126.574 246.739,127.241 248,127.5C 263.885,123.898 279.885,122.565 296,123.5C 299.225,121.403 301.225,118.403 302,114.5C 305.444,111.028 309.611,109.028 314.5,108.5C 318.448,109.445 322.448,110.112 326.5,110.5C 324.887,103.92 324.387,97.2534 325,90.5C 328.364,85.1498 333.031,83.4832 339,85.5C 342.841,87.0889 346.174,89.4222 349,92.5C 360.163,106.457 365.496,122.457 365,140.5C 415.511,168.808 444.677,211.808 452.5,269.5C 453.873,269.657 455.207,269.49 456.5,269C 470.429,258.407 483.095,246.407 494.5,233C 502.188,228.952 507.855,230.785 511.5,238.5 Z M 288.5,145.5 C 294.732,144.939 300.732,145.772 306.5,148C 308.524,150.64 308.857,153.473 307.5,156.5C 301.779,152.973 295.779,149.973 289.5,147.5C 288.702,147.043 288.369,146.376 288.5,145.5 Z M 269.5,165.5 C 300.444,174.613 319.61,194.947 327,226.5C 330.515,245.744 327.848,264.077 319,281.5C 315.154,284.23 310.987,286.397 306.5,288C 303.705,289.793 301.205,291.96 299,294.5C 296.215,300.573 293.048,306.406 289.5,312C 279.621,318.184 268.955,321.517 257.5,322C 246.473,309.679 234.14,299.012 220.5,290C 242.951,290.183 261.784,282.016 277,265.5C 297.914,238.881 299.914,210.881 283,181.5C 278.266,176.274 273.766,170.941 269.5,165.5 Z M 331.5,169.5 C 334.044,169.104 336.211,169.771 338,171.5C 338.829,176.533 338.662,181.533 337.5,186.5C 334.554,182.38 331.388,178.38 328,174.5C 327.251,173.365 327.417,172.365 328.5,171.5C 329.739,171.058 330.739,170.391 331.5,169.5 Z M 362.5,184.5 C 365.563,186.051 368.229,188.218 370.5,191C 376.313,194.299 381.313,193.299 385.5,188C 386.5,187.333 387.5,187.333 388.5,188C 395.314,194.477 400.981,201.81 405.5,210C 404.09,211.267 402.424,211.267 400.5,210C 389.613,210.432 379.613,213.765 370.5,220C 365.591,224.603 360.257,228.436 354.5,231.5C 353.321,223.765 351.321,216.265 348.5,209C 349.025,208.308 349.692,207.808 350.5,207.5C 357.936,208.928 362.269,205.762 363.5,198C 363.075,193.915 362.408,189.915 361.5,186C 362.056,185.617 362.389,185.117 362.5,184.5 Z M 256.5,237.5 C 258.604,237.201 260.604,237.534 262.5,238.5C 256.431,249.581 247.431,256.915 235.5,260.5C 236.092,257.309 237.259,254.309 239,251.5C 241.706,249.129 244.039,246.463 246,243.5C 249.351,241.079 252.851,239.079 256.5,237.5 Z M 423.5,262.5 C 425.265,267.376 426.265,272.542 426.5,278C 426.955,280.923 425.955,283.09 423.5,284.5C 423.032,277.21 423.032,269.877 423.5,262.5 Z M 151.5,284.5 C 154.874,286.88 157.04,290.213 158,294.5C 159.898,304.524 159.732,314.524 157.5,324.5C 153.212,311.53 151.212,298.196 151.5,284.5 Z M 307.5,332.5 C 312.232,333.71 316.066,336.377 319,340.5C 323.211,353.924 327.711,367.257 332.5,380.5C 332.023,381.478 331.357,382.311 330.5,383C 318.716,385.975 307.55,390.475 297,396.5C 291.927,379.622 285.094,363.455 276.5,348C 276.645,347.228 276.978,346.561 277.5,346C 288.181,342.73 298.181,338.23 307.5,332.5 Z M 198.5,336.5 C 207.485,339.552 216.485,342.718 225.5,346C 231.26,346.952 236.926,348.285 242.5,350C 249.713,358.211 256.546,366.711 263,375.5C 268.227,386.631 273.893,397.298 280,407.5C 274.894,410.972 270.06,414.806 265.5,419C 262.833,419.667 260.167,419.667 257.5,419C 237.153,414.893 218.82,406.56 202.5,394C 197.796,389.563 195.629,384.063 196,377.5C 194.932,363.689 195.765,350.022 198.5,336.5 Z"/></g>
<g><path style="opacity:1" fill="#6f9d19" d="M 240.5,137.5 C 240.5,138.5 240.5,139.5 240.5,140.5C 241.363,142.421 242.029,144.421 242.5,146.5C 242.263,147.791 242.596,148.791 243.5,149.5C 244.021,153.481 244.354,157.481 244.5,161.5C 244.557,162.609 244.89,163.609 245.5,164.5C 245.869,172.279 245.202,179.946 243.5,187.5C 256.083,186.872 265.583,191.872 272,202.5C 273.002,209.528 274.169,216.528 275.5,223.5C 273.257,224.474 270.924,224.808 268.5,224.5C 266.866,223.839 265.033,223.506 263,223.5C 259.85,223.36 257.017,224.027 254.5,225.5C 250.895,225.799 247.561,226.965 244.5,229C 236.427,234.4 230.594,241.567 227,250.5C 221.413,256.695 216.58,263.361 212.5,270.5C 211.833,270.5 211.5,270.833 211.5,271.5C 207.59,276.654 204.756,282.321 203,288.5C 222.702,299.367 239.869,313.367 254.5,330.5C 255.075,332.411 256.075,334.078 257.5,335.5C 266.297,346.756 273.297,359.089 278.5,372.5C 278.657,373.873 278.49,375.207 278,376.5C 277.583,375.244 276.75,374.577 275.5,374.5C 267.668,359.838 257.668,346.838 245.5,335.5C 244.5,333.833 243.167,332.5 241.5,331.5C 230.118,320.972 217.451,312.138 203.5,305C 200.044,303.877 197.21,304.71 195,307.5C 194.153,309.854 193.32,312.188 192.5,314.5C 192.5,315.167 192.5,315.833 192.5,316.5C 191.076,318.515 190.41,320.848 190.5,323.5C 187.906,330.143 186.572,337.143 186.5,344.5C 185.004,360.587 185.67,376.587 188.5,392.5C 188.557,393.609 188.89,394.609 189.5,395.5C 190.515,400.892 191.848,406.226 193.5,411.5C 193.518,413.373 193.018,413.706 192,412.5C 186.272,402.059 181.439,391.392 177.5,380.5C 177.5,380.167 177.5,379.833 177.5,379.5C 173.244,367.476 170.41,355.143 169,342.5C 169.38,323.668 169.213,305.001 168.5,286.5C 168.5,285.833 168.5,285.167 168.5,284.5C 168.167,281.167 167.833,277.833 167.5,274.5C 167.59,271.848 166.924,269.515 165.5,267.5C 164.906,262.702 163.74,258.035 162,253.5C 161.34,251.676 160.173,250.343 158.5,249.5C 157.833,249.167 157.167,248.833 156.5,248.5C 153.19,246.199 149.857,243.866 146.5,241.5C 145.395,240.4 144.062,239.733 142.5,239.5C 113.225,215.284 93.2253,184.951 82.5,148.5C 82.5905,145.848 81.9238,143.515 80.5,141.5C 80.5,140.833 80.5,140.167 80.5,139.5C 80.5905,136.848 79.9238,134.515 78.5,132.5C 76.0215,112.532 75.8548,92.5322 78,72.5C 78.414,72.0426 78.914,71.7093 79.5,71.5C 94.8661,113.868 122.199,146.201 161.5,168.5C 161.424,134.329 174.091,105.996 199.5,83.5C 218.992,97.1838 232.659,115.184 240.5,137.5 Z"/></g>
<g><path style="opacity:1" fill="#6f9b1d" d="M 353.5,144.5 C 353.733,146.062 354.4,147.395 355.5,148.5C 359.757,154.262 364.59,159.595 370,164.5C 374.027,169.721 376.86,175.554 378.5,182C 378.026,183.608 377.359,183.774 376.5,182.5C 372.361,173.861 366.028,167.361 357.5,163C 356.365,162.251 355.365,162.417 354.5,163.5C 352.669,168.153 351.669,172.987 351.5,178C 352.449,185.273 353.616,192.44 355,199.5C 348.213,186.954 346.713,173.787 350.5,160C 343.36,157.371 336.026,156.038 328.5,156C 326,157.167 324.167,159 323,161.5C 317.926,156.944 317.426,152.11 321.5,147C 317.548,142.916 314.214,138.416 311.5,133.5C 311.672,132.508 311.338,131.842 310.5,131.5C 309.658,126.213 309.324,120.88 309.5,115.5C 319.351,115.266 327.685,118.599 334.5,125.5C 337.189,118.385 338.022,111.051 337,103.5C 335.765,98.709 334.265,94.0424 332.5,89.5C 336.302,90.7786 339.469,93.1119 342,96.5C 353.057,110.066 356.557,125.399 352.5,142.5C 352.543,143.416 352.876,144.083 353.5,144.5 Z"/></g>
<g><path style="opacity:0.909" fill="#111111" d="M 310.5,131.5 C 311.338,131.842 311.672,132.508 311.5,133.5C 287.318,130.982 263.651,133.315 240.5,140.5C 240.5,139.5 240.5,138.5 240.5,137.5C 263.255,129.575 286.589,127.575 310.5,131.5 Z"/></g>
<g><path style="opacity:0.09" fill="#656564" d="M 311.5,133.5 C 314.214,138.416 317.548,142.916 321.5,147C 317.426,152.11 317.926,156.944 323,161.5C 324.167,159 326,157.167 328.5,156C 336.026,156.038 343.36,157.371 350.5,160C 346.713,173.787 348.213,186.954 355,199.5C 353.616,192.44 352.449,185.273 351.5,178C 351.669,172.987 352.669,168.153 354.5,163.5C 355.365,162.417 356.365,162.251 357.5,163C 366.028,167.361 372.361,173.861 376.5,182.5C 377.359,183.774 378.026,183.608 378.5,182C 376.86,175.554 374.027,169.721 370,164.5C 364.59,159.595 359.757,154.262 355.5,148.5C 410.453,178.208 437.453,224.542 436.5,287.5C 427.728,291.091 418.728,294.091 409.5,296.5C 409.167,296 408.833,295.5 408.5,295C 413.607,279.013 414.607,262.847 411.5,246.5C 411.59,243.848 410.924,241.515 409.5,239.5C 407.457,231.409 404.29,223.742 400,216.5C 397.502,215.402 395.002,215.568 392.5,217C 369.371,227.297 352.371,243.797 341.5,266.5C 351.428,212.518 331.428,174.351 281.5,152C 268.777,148.284 255.777,146.451 242.5,146.5C 242.029,144.421 241.363,142.421 240.5,140.5C 263.651,133.315 287.318,130.982 311.5,133.5 Z M 288.5,145.5 C 288.369,146.376 288.702,147.043 289.5,147.5C 295.779,149.973 301.779,152.973 307.5,156.5C 308.857,153.473 308.524,150.64 306.5,148C 300.732,145.772 294.732,144.939 288.5,145.5 Z M 331.5,169.5 C 330.739,170.391 329.739,171.058 328.5,171.5C 327.417,172.365 327.251,173.365 328,174.5C 331.388,178.38 334.554,182.38 337.5,186.5C 338.662,181.533 338.829,176.533 338,171.5C 336.211,169.771 334.044,169.104 331.5,169.5 Z M 362.5,184.5 C 362.389,185.117 362.056,185.617 361.5,186C 362.408,189.915 363.075,193.915 363.5,198C 362.269,205.762 357.936,208.928 350.5,207.5C 349.692,207.808 349.025,208.308 348.5,209C 351.321,216.265 353.321,223.765 354.5,231.5C 360.257,228.436 365.591,224.603 370.5,220C 379.613,213.765 389.613,210.432 400.5,210C 402.424,211.267 404.09,211.267 405.5,210C 400.981,201.81 395.314,194.477 388.5,188C 387.5,187.333 386.5,187.333 385.5,188C 381.313,193.299 376.313,194.299 370.5,191C 368.229,188.218 365.563,186.051 362.5,184.5 Z M 423.5,262.5 C 423.032,269.877 423.032,277.21 423.5,284.5C 425.955,283.09 426.955,280.923 426.5,278C 426.265,272.542 425.265,267.376 423.5,262.5 Z"/></g>
<g><path style="opacity:0.494" fill="#6a7e4b" d="M 78.5,132.5 C 79.9238,134.515 80.5905,136.848 80.5,139.5C 79.0762,137.485 78.4095,135.152 78.5,132.5 Z"/></g>
<g><path style="opacity:0.971" fill="#0e0e0e" d="M 353.5,144.5 C 403.543,168.184 433.043,207.517 442,262.5C 442.5,269.826 442.666,277.159 442.5,284.5C 440.819,286.008 438.819,287.008 436.5,287.5C 437.453,224.542 410.453,178.208 355.5,148.5C 354.4,147.395 353.733,146.062 353.5,144.5 Z"/></g>
<g><path style="opacity:0.467" fill="#6a7d4c" d="M 80.5,141.5 C 81.9238,143.515 82.5905,145.848 82.5,148.5C 81.0762,146.485 80.4095,144.152 80.5,141.5 Z"/></g>
<g><path style="opacity:0.086" fill="#646464" d="M 243.5,149.5 C 290.437,149.604 321.27,171.937 336,216.5C 341.771,242.457 337.938,266.79 324.5,289.5C 317.098,289.951 310.931,292.951 306,298.5C 304.303,304.226 301.803,309.559 298.5,314.5C 301.306,315.168 303.972,315.834 306.5,316.5C 297.933,316.111 290.266,318.611 283.5,324C 274.066,327.275 264.4,329.442 254.5,330.5C 239.869,313.367 222.702,299.367 203,288.5C 204.756,282.321 207.59,276.654 211.5,271.5C 211.414,272.496 211.748,273.329 212.5,274C 246.255,278.564 269.422,265.064 282,233.5C 288.571,205.824 280.404,183.657 257.5,167C 253.433,164.406 249.1,162.573 244.5,161.5C 244.354,157.481 244.021,153.481 243.5,149.5 Z M 269.5,165.5 C 273.766,170.941 278.266,176.274 283,181.5C 299.914,210.881 297.914,238.881 277,265.5C 261.784,282.016 242.951,290.183 220.5,290C 234.14,299.012 246.473,309.679 257.5,322C 268.955,321.517 279.621,318.184 289.5,312C 293.048,306.406 296.215,300.573 299,294.5C 301.205,291.96 303.705,289.793 306.5,288C 310.987,286.397 315.154,284.23 319,281.5C 327.848,264.077 330.515,245.744 327,226.5C 319.61,194.947 300.444,174.613 269.5,165.5 Z"/></g>
<g><path style="opacity:0.977" fill="#0f0f0e" d="M 242.5,146.5 C 255.777,146.451 268.777,148.284 281.5,152C 331.428,174.351 351.428,212.518 341.5,266.5C 340.787,269.594 339.787,272.594 338.5,275.5C 337.463,276.93 336.796,278.597 336.5,280.5C 334.608,283.276 332.941,286.276 331.5,289.5C 330.675,290.386 329.675,290.719 328.5,290.5C 326.901,290.768 325.568,290.434 324.5,289.5C 337.938,266.79 341.771,242.457 336,216.5C 321.27,171.937 290.437,149.604 243.5,149.5C 242.596,148.791 242.263,147.791 242.5,146.5 Z"/></g>
<g><path style="opacity:0.982" fill="#0c0c0c" d="M 244.5,161.5 C 249.1,162.573 253.433,164.406 257.5,167C 280.404,183.657 288.571,205.824 282,233.5C 269.422,265.064 246.255,278.564 212.5,274C 211.748,273.329 211.414,272.496 211.5,271.5C 211.5,270.833 211.833,270.5 212.5,270.5C 247.415,272.143 269.249,256.143 278,222.5C 280.924,195.34 270.091,176.007 245.5,164.5C 244.89,163.609 244.557,162.609 244.5,161.5 Z"/></g>
<g><path style="opacity:1" fill="#6f9d19" d="M 409.5,239.5 C 409.41,242.152 410.076,244.485 411.5,246.5C 414.607,262.847 413.607,279.013 408.5,295C 408.833,295.5 409.167,296 409.5,296.5C 418.728,294.091 427.728,291.091 436.5,287.5C 438.819,287.008 440.819,286.008 442.5,284.5C 466.679,273.66 486.345,257.326 501.5,235.5C 495.437,287.879 469.437,326.879 423.5,352.5C 420.822,353.834 418.155,355.167 415.5,356.5C 406.019,360.27 396.519,363.937 387,367.5C 378.984,378.863 373.151,391.196 369.5,404.5C 367.741,407.185 366.741,410.185 366.5,413.5C 359.548,444.573 344.881,471.406 322.5,494C 321.5,494.667 320.5,494.667 319.5,494C 334.194,472.755 342.86,449.255 345.5,423.5C 345.5,421.833 345.5,420.167 345.5,418.5C 345.666,413.489 345.499,408.489 345,403.5C 344.292,402.619 343.458,401.953 342.5,401.5C 338.71,400.098 335.044,400.431 331.5,402.5C 310.283,406.943 291.283,415.943 274.5,429.5C 272.973,429.427 271.973,430.094 271.5,431.5C 268.167,434.5 264.833,437.5 261.5,440.5C 260.624,440.631 259.957,440.298 259.5,439.5C 260.127,438.583 260.461,437.583 260.5,436.5C 261.833,434.833 263.167,433.167 264.5,431.5C 265.5,431.167 266.167,430.5 266.5,429.5C 287.617,407.436 313.284,393.436 343.5,387.5C 343.5,385.5 343.5,383.5 343.5,381.5C 343.59,378.848 342.924,376.515 341.5,374.5C 340.155,365.633 337.322,357.299 333,349.5C 331.622,332.625 322.789,321.958 306.5,317.5C 306.5,317.167 306.5,316.833 306.5,316.5C 303.972,315.834 301.306,315.168 298.5,314.5C 301.803,309.559 304.303,304.226 306,298.5C 310.931,292.951 317.098,289.951 324.5,289.5C 325.568,290.434 326.901,290.768 328.5,290.5C 330.214,291.738 332.214,292.405 334.5,292.5C 335.04,289.135 335.706,285.802 336.5,282.5C 337.924,280.485 338.59,278.152 338.5,275.5C 339.787,272.594 340.787,269.594 341.5,266.5C 352.371,243.797 369.371,227.297 392.5,217C 395.002,215.568 397.502,215.402 400,216.5C 404.29,223.742 407.457,231.409 409.5,239.5 Z M 423.5,262.5 C 423.032,269.877 423.032,277.21 423.5,284.5C 425.955,283.09 426.955,280.923 426.5,278C 426.265,272.542 425.265,267.376 423.5,262.5 Z"/></g>
<g><path style="opacity:0.713" fill="#6b8246" d="M 268.5,224.5 C 263.797,224.437 259.13,224.771 254.5,225.5C 257.017,224.027 259.85,223.36 263,223.5C 265.033,223.506 266.866,223.839 268.5,224.5 Z"/></g>
<g><path style="opacity:0.129" fill="#656564" d="M 245.5,164.5 C 270.091,176.007 280.924,195.34 278,222.5C 269.249,256.143 247.415,272.143 212.5,270.5C 216.58,263.361 221.413,256.695 227,250.5C 230.594,241.567 236.427,234.4 244.5,229C 247.561,226.965 250.895,225.799 254.5,225.5C 259.13,224.771 263.797,224.437 268.5,224.5C 270.924,224.808 273.257,224.474 275.5,223.5C 274.169,216.528 273.002,209.528 272,202.5C 265.583,191.872 256.083,186.872 243.5,187.5C 245.202,179.946 245.869,172.279 245.5,164.5 Z M 256.5,237.5 C 252.851,239.079 249.351,241.079 246,243.5C 244.039,246.463 241.706,249.129 239,251.5C 237.259,254.309 236.092,257.309 235.5,260.5C 247.431,256.915 256.431,249.581 262.5,238.5C 260.604,237.534 258.604,237.201 256.5,237.5 Z"/></g>
<g><path style="opacity:0.97" fill="#121212" d="M 142.5,239.5 C 144.062,239.733 145.395,240.4 146.5,241.5C 134.901,290.338 143.734,335.004 173,375.5C 174.371,377.041 175.871,378.375 177.5,379.5C 177.5,379.833 177.5,380.167 177.5,380.5C 177.225,382.842 176.392,382.842 175,380.5C 140.764,338.945 129.931,291.945 142.5,239.5 Z"/></g>
<g><path style="opacity:0.096" fill="#646464" d="M 146.5,241.5 C 149.857,243.866 153.19,246.199 156.5,248.5C 155.366,250.966 155.199,253.633 156,256.5C 157.335,261.838 158.669,267.171 160,272.5C 162.283,278.008 164.95,283.342 168,288.5C 168.464,287.906 168.631,287.239 168.5,286.5C 169.213,305.001 169.38,323.668 169,342.5C 170.41,355.143 173.244,367.476 177.5,379.5C 175.871,378.375 174.371,377.041 173,375.5C 143.734,335.004 134.901,290.338 146.5,241.5 Z M 151.5,284.5 C 151.212,298.196 153.212,311.53 157.5,324.5C 159.732,314.524 159.898,304.524 158,294.5C 157.04,290.213 154.874,286.88 151.5,284.5 Z"/></g>
<g><path style="opacity:0.514" fill="#6b8443" d="M 409.5,239.5 C 410.924,241.515 411.59,243.848 411.5,246.5C 410.076,244.485 409.41,242.152 409.5,239.5 Z"/></g>
<g><path style="opacity:0.392" fill="#61625e" d="M 158.5,249.5 C 160.173,250.343 161.34,251.676 162,253.5C 163.74,258.035 164.906,262.702 165.5,267.5C 165.41,270.152 166.076,272.485 167.5,274.5C 167.833,277.833 168.167,281.167 168.5,284.5C 162.229,273.759 158.895,262.092 158.5,249.5 Z"/></g>
<g><path style="opacity:0.82" fill="#151515" d="M 156.5,248.5 C 157.167,248.833 157.833,249.167 158.5,249.5C 158.895,262.092 162.229,273.759 168.5,284.5C 168.5,285.167 168.5,285.833 168.5,286.5C 168.631,287.239 168.464,287.906 168,288.5C 164.95,283.342 162.283,278.008 160,272.5C 158.669,267.171 157.335,261.838 156,256.5C 155.199,253.633 155.366,250.966 156.5,248.5 Z"/></g>
<g><path style="opacity:0.573" fill="#6b7f49" d="M 165.5,267.5 C 166.924,269.515 167.59,271.848 167.5,274.5C 166.076,272.485 165.41,270.152 165.5,267.5 Z"/></g>
<g><path style="opacity:0.882" fill="#5e7339" d="M 338.5,275.5 C 338.59,278.152 337.924,280.485 336.5,282.5C 336.5,281.833 336.5,281.167 336.5,280.5C 336.796,278.597 337.463,276.93 338.5,275.5 Z"/></g>
<g><path style="opacity:0.554" fill="#5a5e53" d="M 336.5,280.5 C 336.5,281.167 336.5,281.833 336.5,282.5C 335.706,285.802 335.04,289.135 334.5,292.5C 332.214,292.405 330.214,291.738 328.5,290.5C 329.675,290.719 330.675,290.386 331.5,289.5C 332.941,286.276 334.608,283.276 336.5,280.5 Z"/></g>
<g><path style="opacity:0.225" fill="#646563" d="M 241.5,331.5 C 233.336,330.96 225.336,329.46 217.5,327C 208.831,323.496 200.498,319.329 192.5,314.5C 193.32,312.188 194.153,309.854 195,307.5C 197.21,304.71 200.044,303.877 203.5,305C 217.451,312.138 230.118,320.972 241.5,331.5 Z"/></g>
<g><path style="opacity:0.984" fill="#0b0b0b" d="M 306.5,316.5 C 306.5,316.833 306.5,317.167 306.5,317.5C 291.935,328.245 275.602,334.245 257.5,335.5C 256.075,334.078 255.075,332.411 254.5,330.5C 264.4,329.442 274.066,327.275 283.5,324C 290.266,318.611 297.933,316.111 306.5,316.5 Z"/></g>
<g><path style="opacity:0.091" fill="#656564" d="M 192.5,316.5 C 208.198,328.178 225.865,334.512 245.5,335.5C 257.668,346.838 267.668,359.838 275.5,374.5C 279.625,382.712 283.458,391.045 287,399.5C 286.27,389.812 283.437,380.812 278.5,372.5C 273.297,359.089 266.297,346.756 257.5,335.5C 275.602,334.245 291.935,328.245 306.5,317.5C 322.789,321.958 331.622,332.625 333,349.5C 337.322,357.299 340.155,365.633 341.5,374.5C 341.41,377.152 342.076,379.485 343.5,381.5C 343.5,383.5 343.5,385.5 343.5,387.5C 313.284,393.436 287.617,407.436 266.5,429.5C 266.389,428.883 266.056,428.383 265.5,428C 246.176,425.447 228.176,419.114 211.5,409C 203.955,403.281 196.288,397.781 188.5,392.5C 185.67,376.587 185.004,360.587 186.5,344.5C 188.233,337.702 189.566,330.702 190.5,323.5C 190.41,320.848 191.076,318.515 192.5,316.5 Z M 307.5,332.5 C 298.181,338.23 288.181,342.73 277.5,346C 276.978,346.561 276.645,347.228 276.5,348C 285.094,363.455 291.927,379.622 297,396.5C 307.55,390.475 318.716,385.975 330.5,383C 331.357,382.311 332.023,381.478 332.5,380.5C 327.711,367.257 323.211,353.924 319,340.5C 316.066,336.377 312.232,333.71 307.5,332.5 Z M 198.5,336.5 C 195.765,350.022 194.932,363.689 196,377.5C 195.629,384.063 197.796,389.563 202.5,394C 218.82,406.56 237.153,414.893 257.5,419C 260.167,419.667 262.833,419.667 265.5,419C 270.06,414.806 274.894,410.972 280,407.5C 273.893,397.298 268.227,386.631 263,375.5C 256.546,366.711 249.713,358.211 242.5,350C 236.926,348.285 231.26,346.952 225.5,346C 216.485,342.718 207.485,339.552 198.5,336.5 Z"/></g>
<g><path style="opacity:0.94" fill="#141413" d="M 192.5,314.5 C 200.498,319.329 208.831,323.496 217.5,327C 225.336,329.46 233.336,330.96 241.5,331.5C 243.167,332.5 244.5,333.833 245.5,335.5C 225.865,334.512 208.198,328.178 192.5,316.5C 192.5,315.833 192.5,315.167 192.5,314.5 Z"/></g>
<g><path style="opacity:0.39" fill="#697556" d="M 190.5,323.5 C 189.566,330.702 188.233,337.702 186.5,344.5C 186.572,337.143 187.906,330.143 190.5,323.5 Z"/></g>
<g><path style="opacity:0.989" fill="#090a09" d="M 423.5,352.5 C 424.239,352.369 424.906,352.536 425.5,353C 411.365,378.634 391.699,398.8 366.5,413.5C 366.741,410.185 367.741,407.185 369.5,404.5C 388.594,392.074 403.927,376.074 415.5,356.5C 418.155,355.167 420.822,353.834 423.5,352.5 Z"/></g>
<g><path style="opacity:0.2" fill="#646562" d="M 415.5,356.5 C 403.927,376.074 388.594,392.074 369.5,404.5C 373.151,391.196 378.984,378.863 387,367.5C 396.519,363.937 406.019,360.27 415.5,356.5 Z"/></g>
<g><path style="opacity:0.951" fill="#6e932b" d="M 278.5,372.5 C 283.437,380.812 286.27,389.812 287,399.5C 283.458,391.045 279.625,382.712 275.5,374.5C 276.75,374.577 277.583,375.244 278,376.5C 278.49,375.207 278.657,373.873 278.5,372.5 Z"/></g>
<g><path style="opacity:0.482" fill="#6a7c4e" d="M 341.5,374.5 C 342.924,376.515 343.59,378.848 343.5,381.5C 342.076,379.485 341.41,377.152 341.5,374.5 Z"/></g>
<g><path style="opacity:0.596" fill="#6a7c4e" d="M 342.5,401.5 C 338.802,401.552 335.135,401.886 331.5,402.5C 335.044,400.431 338.71,400.098 342.5,401.5 Z"/></g>
<g><path style="opacity:0.158" fill="#656664" d="M 342.5,401.5 C 343.458,401.953 344.292,402.619 345,403.5C 345.499,408.489 345.666,413.489 345.5,418.5C 322.54,426.352 298.873,430.019 274.5,429.5C 291.283,415.943 310.283,406.943 331.5,402.5C 335.135,401.886 338.802,401.552 342.5,401.5 Z"/></g>
<g><path style="opacity:0.979" fill="#0c0c0c" d="M 345.5,418.5 C 345.5,420.167 345.5,421.833 345.5,423.5C 321.445,433.506 296.778,436.173 271.5,431.5C 271.973,430.094 272.973,429.427 274.5,429.5C 298.873,430.019 322.54,426.352 345.5,418.5 Z"/></g>
<g><path style="opacity:0.895" fill="#131313" d="M 188.5,392.5 C 196.288,397.781 203.955,403.281 211.5,409C 228.176,419.114 246.176,425.447 265.5,428C 266.056,428.383 266.389,428.883 266.5,429.5C 266.167,430.5 265.5,431.167 264.5,431.5C 236.168,426.165 211.168,414.165 189.5,395.5C 188.89,394.609 188.557,393.609 188.5,392.5 Z"/></g>
<g><path style="opacity:0.765" fill="#6e942b" d="M 260.5,436.5 C 260.461,437.583 260.127,438.583 259.5,439.5C 259.957,440.298 260.624,440.631 261.5,440.5C 256.459,445.374 251.959,450.708 248,456.5C 247.035,458.26 245.868,458.594 244.5,457.5C 249.122,449.889 254.455,442.889 260.5,436.5 Z"/></g>
</svg>
