<?xml version="1.0" encoding="UTF-8" standalone="no"?>
<svg
   version="1.1"
   width="512"
   height="512"
   style="clip-rule:evenodd;fill-rule:evenodd;image-rendering:optimizeQuality;shape-rendering:geometricPrecision;text-rendering:geometricPrecision"
   id="svg3"
   sodipodi:docname="nscp.svg"
   inkscape:export-filename="nscp.svg"
   inkscape:export-xdpi="96"
   inkscape:export-ydpi="96"
   inkscape:version="1.4 (e7c3feb100, 2024-10-09)"
   xmlns:inkscape="http://www.inkscape.org/namespaces/inkscape"
   xmlns:sodipodi="http://sodipodi.sourceforge.net/DTD/sodipodi-0.dtd"
   xmlns="http://www.w3.org/2000/svg"
   xmlns:svg="http://www.w3.org/2000/svg">
  <defs
     id="defs3" />
  <sodipodi:namedview
     id="namedview3"
     pagecolor="#505050"
     bordercolor="#ffffff"
     borderopacity="1"
     inkscape:showpageshadow="0"
     inkscape:pageopacity="0"
     inkscape:pagecheckerboard="1"
     inkscape:deskcolor="#505050"
     inkscape:zoom="1.5644531"
     inkscape:cx="256"
     inkscape:cy="256"
     inkscape:window-width="1920"
     inkscape:window-height="1003"
     inkscape:window-x="1080"
     inkscape:window-y="0"
     inkscape:window-maximized="1"
     inkscape:current-layer="svg3">
    <inkscape:page
       x="0"
       y="0"
       width="512"
       height="512"
       id="page2"
       margin="0"
       bleed="0" />
  </sodipodi:namedview>
  <g
     id="g1"
     style="fill:#ffffff"
     transform="matrix(0.89013733,0,0,0.89178881,28.069913,27.647959)">
    <path
       style="opacity:0.984;fill:#ffffff"
       fill="#000000"
       d="m -0.5,176.5 c 0,-14.667 0,-29.333 0,-44 2.14111,-2.972 4.80777,-5.472 8,-7.5 8.0366,-1.338 16.0366,-2.838 24,-4.5 2.8373,-9.341 6.5039,-18.341 11,-27 C 37.4731,86.9732 32.6398,80.3066 28,73.5 26.8274,68.0232 27.8274,63.0232 31,58.5 39.1667,50.3333 47.3333,42.1667 55.5,34 c 4.7681,-3.1186 9.7681,-3.7853 15,-2 6.4243,3.9229 12.4243,8.4229 18,13.5 9.4367,-5.5527 19.437,-9.7194 30,-12.5 1.131,-8.1986 2.631,-16.3652 4.5,-24.5 2.488,-3.82513 5.988,-5.99179 10.5,-6.5 12.333,-0.66667 24.667,-0.66667 37,0 6.053,1.05292 9.887,4.55292 11.5,10.5 1.073,6.6538 2.073,13.3204 3,20 9.892,3.4098 19.559,7.4098 29,12 6.156,-4.1516 12.323,-8.3183 18.5,-12.5 4.455,-1.8588 8.789,-1.5255 13,1 9.167,9.1667 18.333,18.3333 27.5,27.5 2.867,5.7383 2.533,11.4049 -1,17 -3.833,5 -7.667,10 -11.5,15 5.244,8.737 8.911,18.07 11,28 8.457,0.265 16.79,1.432 25,3.5 3.369,2.365 5.536,5.532 6.5,9.5 0.667,13 0.667,26 0,39 -1.433,5.098 -4.6,8.598 -9.5,10.5 -7.336,1.167 -14.669,2.334 -22,3.5 -2.783,9.729 -6.783,18.895 -12,27.5 5.219,6.218 10.052,12.718 14.5,19.5 1.794,4.026 1.794,8.026 0,12 -8.469,9.47 -17.303,18.637 -26.5,27.5 -4.523,3.173 -9.523,4.173 -15,3 -6.844,-4.848 -13.677,-9.681 -20.5,-14.5 -8.947,5.148 -18.447,8.815 -28.5,11 -0.668,7.344 -1.501,14.678 -2.5,22 -1.298,4.774 -4.132,8.274 -8.5,10.5 -14.667,0.667 -29.333,0.667 -44,0 -4.766,-2.429 -7.6,-6.263 -8.5,-11.5 -0.999,-7.322 -1.832,-14.656 -2.5,-22 -9.526,-2.289 -18.5261,-5.955 -27,-11 -6.644,5.655 -13.644,10.821 -21,15.5 -6.0347,1.405 -11.368,0.072 -16,-4 -7.1667,-7.167 -14.3333,-14.333 -21.5,-21.5 -5.0637,-6.239 -5.7303,-12.905 -2,-20 4.3097,-5.811 8.8097,-11.477 13.5,-17 -4.3778,-7.967 -7.8778,-16.301 -10.5,-25 -8.425,-1.701 -16.925,-3.201 -25.5,-4.5 -3.19223,-2.028 -5.85889,-4.528 -8,-7.5 z m 150,-78 c 24.788,0.8062 42.288,12.473 52.5,35 8.88,32.067 -1.62,55.233 -31.5,69.5 -25.31,7.562 -46.143,1.062 -62.5,-19.5 -10.6356,-16.786 -12.3022,-34.453 -5,-53 9.946,-18.785 25.446,-29.452 46.5,-32 z"
       id="path1" />
  </g>
  <g
     id="g2"
     style="fill:#ffffff"
     transform="matrix(0.89013733,0,0,0.89178881,28.069913,27.647959)">
    <path
       style="opacity:0.98;fill:#ffffff"
       fill="#000000"
       d="m 511.5,271.5 c 0,6 0,12 0,18 -2.141,2.972 -4.808,5.472 -8,7.5 -5.6,1.251 -11.1,2.751 -16.5,4.5 -1.423,8.029 -3.923,15.696 -7.5,23 3.318,3.818 6.818,7.485 10.5,11 3.954,5.524 4.288,11.19 1,17 -5.793,7.461 -11.959,14.628 -18.5,21.5 -4.494,2.833 -9.161,3.166 -14,1 -4.843,-2.849 -9.677,-5.683 -14.5,-8.5 -6.75,4.256 -13.916,7.756 -21.5,10.5 -0.657,6.48 -1.49,12.98 -2.5,19.5 -1.5,4.167 -4.333,7 -8.5,8.5 -10.581,1.993 -21.248,2.659 -32,2 -3.062,-1.061 -5.562,-2.894 -7.5,-5.5 -1.944,-5.884 -3.444,-11.884 -4.5,-18 -0.318,-1.147 -0.984,-1.981 -2,-2.5 -6.88,-1.552 -13.547,-3.719 -20,-6.5 -5.164,4.325 -10.498,8.492 -16,12.5 -5.232,1.785 -10.232,1.119 -15,-2 -5.542,-5.211 -11.375,-10.044 -17.5,-14.5 -4.072,-4.594 -5.406,-9.928 -4,-16 2.915,-5.498 6.081,-10.832 9.5,-16 -3.588,-6.175 -6.922,-12.509 -10,-19 -6.295,-1.096 -12.628,-1.93 -19,-2.5 -7.913,-3.018 -11.413,-8.851 -10.5,-17.5 -0.445,-5.672 -0.945,-11.338 -1.5,-17 -0.22,-5.513 1.78,-10.013 6,-13.5 6.466,-2.074 12.966,-3.907 19.5,-5.5 1.46,-7.547 3.627,-14.881 6.5,-22 -3.992,-4.832 -7.825,-9.832 -11.5,-15 -2,-4.333 -2,-8.667 0,-13 5.333,-6.667 10.667,-13.333 16,-20 5.153,-4.721 10.986,-5.887 17.5,-3.5 4.253,2.71 8.42,5.543 12.5,8.5 7.31,-5.073 15.143,-9.239 23.5,-12.5 0.657,-6.48 1.49,-12.98 2.5,-19.5 1.765,-2.973 4.265,-5.14 7.5,-6.5 10.913,-2.034 21.913,-2.701 33,-2 3.437,1.105 5.937,3.272 7.5,6.5 1.873,5.53 3.039,11.197 3.5,17 8.93,1.356 17.43,4.023 25.5,8 4.748,-6.764 11.081,-11.097 19,-13 6.12,1.142 11.286,3.976 15.5,8.5 4.785,3.818 9.285,7.985 13.5,12.5 2.156,3.762 2.823,7.762 2,12 -2.79,5.417 -5.957,10.584 -9.5,15.5 4.572,6.308 8.238,13.141 11,20.5 5.95,1.161 11.95,1.995 18,2.5 5.338,2.007 8.504,5.841 9.5,11.5 0.176,4.188 0.676,8.188 1.5,12 z m -129,-34 c 29.13,0.467 45.13,15.133 48,44 -2.182,26.683 -16.682,41.35 -43.5,44 -31.806,-4.799 -45.806,-23.133 -42,-55 6.183,-18.359 18.683,-29.359 37.5,-33 z"
       id="path2" />
  </g>
  <g
     id="g3"
     style="fill:#ffffff"
     transform="matrix(0.89013733,0,0,0.89178881,28.069913,27.647959)">
    <path
       style="opacity:0.976;fill:#ffffff"
       fill="#000000"
       d="m 194.5,305.5 c 6.687,0.169 13.354,0.669 20,1.5 4.562,1.627 7.395,4.794 8.5,9.5 0.548,3.67 1.048,7.337 1.5,11 6.924,1.587 13.424,4.254 19.5,8 5.897,-6.634 13.064,-8.801 21.5,-6.5 6.542,4.875 12.042,10.708 16.5,17.5 1.471,8.397 -1.029,15.397 -7.5,21 3.328,5.984 5.661,12.317 7,19 15.64,-1.194 22.64,5.973 21,21.5 1.329,15.838 -6.004,23.338 -22,22.5 -1.55,6.319 -3.883,12.319 -7,18 2.694,4.201 5.194,8.534 7.5,13 1.027,4.816 0.027,9.15 -3,13 -4.575,5.246 -9.742,9.746 -15.5,13.5 -3.333,0.667 -6.667,0.667 -10,0 -4.207,-2.265 -8.207,-4.765 -12,-7.5 -5.738,2.858 -11.738,5.024 -18,6.5 -1.217,4.79 -2.384,9.624 -3.5,14.5 -1.5,2.833 -3.667,5 -6.5,6.5 -8.667,2 -17.333,2 -26,0 -2.46,-1.458 -4.627,-3.291 -6.5,-5.5 -1.332,-5.501 -2.499,-11.001 -3.5,-16.5 -5.813,-1.823 -11.313,-4.323 -16.5,-7.5 -4.08,2.957 -8.247,5.79 -12.5,8.5 -4.572,0.887 -8.905,0.22 -13,-2 -4.167,-4.167 -8.333,-8.333 -12.5,-12.5 -4.28,-5.845 -4.28,-11.845 0,-18 2.167,-2.833 4.333,-5.667 6.5,-8.5 -3.01,-4.855 -5.344,-10.021 -7,-15.5 -4.552,-1.49 -9.219,-2.656 -14,-3.5 -7.411,-4.391 -10.0777,-10.891 -8,-19.5 -1.8316,-15.67 5.168,-23.17 21,-22.5 2.109,-5.651 4.609,-11.151 7.5,-16.5 0.667,-1 0.667,-2 0,-3 -3.082,-3.159 -5.416,-6.825 -7,-11 -0.738,-3.761 -0.405,-7.428 1,-11 4.948,-6.953 11.115,-12.453 18.5,-16.5 3,-0.667 6,-0.667 9,0 3.804,2.305 7.47,4.805 11,7.5 6.008,-3.447 12.341,-6.113 19,-8 1.036,-5.143 2.536,-10.143 4.5,-15 2.975,-3.189 6.475,-5.189 10.5,-6 z m 0,66 c 29,-0.168 42.834,14.165 41.5,43 -4.059,15.393 -13.892,24.56 -29.5,27.5 -24.064,0.607 -37.731,-11.059 -41,-35 1.873,-18.359 11.539,-30.192 29,-35.5 z"
       id="path3" />
  </g>
</svg>
