<?xml version="1.0" encoding="UTF-8"?>
<svg id="logo" xmlns="http://www.w3.org/2000/svg" version="1.1" viewBox="0 0 368.5 368.5">
  <!-- Generator: Adobe Illustrator 30.0.0, SVG Export Plug-In . SVG Version: 2.1.1 Build 123)  -->
  <path d="M176.24,48.47c3.85-4.11,12.07-4.38,16.2-.54l128.78,256.75c5.37,11.79-8.08,21.89-18.04,13.76L173.28,58.48c-.72-3.18.76-7.66,2.96-10.01Z"/>
  <path d="M55.84,46.24c7.32-1.19,13.42,3.53,13.87,10.95l-.03,254.82c-1.96,14.22-21.74,13.83-23.02-.69l.52-257.2c.97-3.73,4.86-7.26,8.66-7.88Z"/>
  <path d="M136.3,46.24c7.23-1.18,13.33,3.74,13.86,10.95l-.03,254.82c-2,14.16-21.72,13.99-23.02-.69l.52-257.2c.97-3.74,4.86-7.26,8.66-7.88Z"/>
</svg>