<?xml version="1.0" encoding="UTF-8"?>
<svg id="logo" xmlns="http://www.w3.org/2000/svg" version="1.1" viewBox="0 0 368.5 368.5">
  <!-- Generator: Adobe Illustrator 30.0.0, SVG Export Plug-In . SVG Version: 2.1.1 Build 123)  -->
  <path d="M181.74,196.1l16.23-46.62,35.13-38.13c4.62,6.04,14.3,12.37,18.36,18.28.44.63,1.03.97.36,1.81l-70.08,64.65Z"/>
  <polygon points="303.13 84.75 261.11 122.71 241.41 102.98 279.89 61.11 303.13 84.75"/>
  <polygon points="120.67 335.46 110.69 332.52 172.43 99.15 200.31 108.09 120.67 335.46"/>
  <polygon points="223.4 42.39 204.7 96.23 176.05 88.3 190.37 32.32 223.4 42.39"/>
  <path d="M126.42,226.27l-7.89,29.1-42.75,39.17c-1.62-.74-7.33-5.61-6.51-7.2l57.14-61.06Z"/>
</svg>