<?xml version="1.0" encoding="UTF-8"?>
<svg id="logo" xmlns="http://www.w3.org/2000/svg" version="1.1" viewBox="0 0 512 512">
  <!-- Generator: Adobe Illustrator 30.0.0, SVG Export Plug-In . SVG Version: 2.1.1 Build 123)  -->
  <path d="M320,256h16V113c20.42,6.86,38.56,19.75,58.69,27.81,9.39,5.48,5.36,16.43,5.27,24.65-.35,30.17.35,60.39.04,90.55,19.88,1.83,51.4-5.71,69.7,1.8,17.92,7.36,8.59,32.55-10.15,30.24l-410.04-.05c-11.52-1.25-18.78-8.12-16.28-20.26,1.08-5.23,9.16-11.73,14.27-11.73h64.5c-.3-30.16.39-60.37.04-90.54-.09-8.23-4.12-19.17,5.27-24.65,20.14-8.05,38.28-20.95,58.69-27.81v143h16V66.5c0-2.1,5.44-5.63,7.32-6.68,13.4-7.43,36.89-19.77,50.68-25.32,12.2-4.91,28.25,8.56,38.98,14.02,6.3,3.2,31.02,11.52,31.02,18.98v188.5ZM217.76,95.26c-7.5,1.18-10.04,6.08-10.75,13.25-1.74,17.32,4.51,22.21,21.47,20.47,8.01-.82,11.44-4.64,12.4-12.6,2.22-18.39-5.1-23.95-23.12-21.12ZM281.76,95.26c-7.5,1.18-10.04,6.08-10.75,13.25-1.74,17.32,4.51,22.21,21.47,20.47,8.01-.82,11.44-4.64,12.4-12.6,2.22-18.39-5.1-23.95-23.12-21.12ZM217.76,143.26c-7.5,1.18-10.04,6.08-10.75,13.25-1.74,17.32,4.51,22.21,21.47,20.47,8.01-.82,11.44-4.64,12.4-12.6,2.22-18.39-5.1-23.95-23.12-21.12ZM281.76,143.26c-7.5,1.18-10.04,6.08-10.75,13.25-1.74,17.32,4.51,22.21,21.47,20.47,8.01-.82,11.44-4.64,12.4-12.6,2.22-18.39-5.1-23.95-23.12-21.12ZM137.76,159.26c-7.5,1.18-10.04,6.08-10.75,13.25-1.74,17.32,4.51,22.21,21.47,20.47,8.01-.82,11.44-4.64,12.4-12.6,2.22-18.39-5.1-23.95-23.12-21.12ZM361.76,159.26c-7.5,1.18-10.04,6.08-10.75,13.25-1.74,17.32,4.51,22.21,21.47,20.47,8.01-.82,11.44-4.64,12.4-12.6,2.22-18.39-5.1-23.95-23.12-21.12ZM137.76,207.26c-7.5,1.18-10.04,6.08-10.75,13.25-1.74,17.32,4.51,22.21,21.47,20.47,8.01-.82,11.44-4.64,12.4-12.6,2.22-18.39-5.1-23.95-23.12-21.12ZM272,256c-.81-14.45,1.49-29.69-.75-43.76-5.5-7.49-27.65-7.72-30.98,1.52-1.68,4.67-.2,6.76-.23,10.69-.08,10.51-.03,21.04-.04,31.54h32ZM361.76,207.26c-7.5,1.18-10.04,6.08-10.75,13.25-1.74,17.32,4.51,22.21,21.47,20.47,8.01-.82,11.44-4.64,12.4-12.6,2.22-18.39-5.1-23.95-23.12-21.12Z"/>
  <path d="M176,304c-1.07,60.86,67.1,98.02,119.67,69.17,24.76-13.59,40.96-40.78,40.33-69.17h96c-.76,11.55,2.52,22.67-.44,34.06-5.02,19.3-24.9,12.75-39.92,14.08l-1.14.86c-9.85,16.85,3.68,19.72,12.02,29.99,6.11,7.53,6.49,14.59.46,22.49-7.01,9.19-35.77,37.96-44.95,45.05-4.37,3.38-8.79,5.3-14.46,4.41-11.69-1.84-16.86-21.67-29.81-19.72-3.37.51-9.37,2.7-9.81,6.23-2.28,18.29,7.09,36.72-20.4,38.6-15.53,1.06-40.65,1.2-56.08,0-25.26-1.97-18.46-21.59-19.6-40.4l-.86-1.14c-4.51-1.43-8.3-4.24-13.26-3.29-12.71,2.44-18.49,30.96-39.24,15.79-8.22-6.01-38.58-36.63-45.03-44.97s-6.4-15.13.01-23.04c8.49-10.47,23.09-14.18,10.88-30.85-15.03-1.32-34.9,5.23-39.92-14.08-2.98-11.44.19-22.5-.44-34.06h96Z"/>
  <path d="M320,304c-.91,31-22.62,55.82-52.95,61.55-41.42,7.83-73.22-20.61-75.05-61.55h128Z"/>
</svg>